<svg xmlns="http://www.w3.org/2000/svg" width="60" height="60" viewBox="0 0 60 60"><defs><mask id="wsm8b" width="2.01" height="2.01" x="-1" y="-1"><path fill="#fff" d="M5.8 3.8h48.4v48.4H5.8z"/><path d="M30 4c13.255 0 24 10.745 24 24S43.255 52 30 52 6 41.255 6 28 16.745 4 30 4z"/></mask><filter id="wsm8a" width="78.2" height="80.2" x="-9.1" y="-11.1" filterUnits="userSpaceOnUse"><feOffset dy="2" in="SourceGraphic" result="FeOffset1035Out"/><feGaussianBlur in="FeOffset1035Out" result="FeGaussianBlur1036Out" stdDeviation="1.9600000000000002 1.9600000000000002"/></filter></defs><g><g><g><g filter="url(#wsm8a)"><path fill="none" stroke="#212121" stroke-opacity=".35" stroke-width=".4" d="M30 4c13.255 0 24 10.745 24 24S43.255 52 30 52 6 41.255 6 28 16.745 4 30 4z" mask="url(&quot;#wsm8b&quot;)"/><path fill="#212121" fill-opacity=".35" d="M30 4c13.255 0 24 10.745 24 24S43.255 52 30 52 6 41.255 6 28 16.745 4 30 4z"/></g><path fill="#fff" d="M30 4c13.255 0 24 10.745 24 24S43.255 52 30 52 6 41.255 6 28 16.745 4 30 4z"/></g><g><path fill="#6c6c6c" d="M26.294 38l9.68-10-9.68-10-2.307 2.344L31.4 28l-7.412 7.656z"/><path fill="#212121" d="M26.294 38l9.68-10-9.68-10-2.307 2.344L31.4 28l-7.412 7.656z"/></g></g></g></svg>